<svg xmlns="http://www.w3.org/2000/svg" width="400" height="300" viewBox="0 0 400 300"><rect width="400" height="300" fill="#f0fdf4"/><rect x="50" y="100" width="300" height="110" rx="10" fill="#bbf7d0" stroke="#16a34a" stroke-width="2"/><g fill="#15803d"><rect x="65" y="115" width="22" height="16" rx="3"/><rect x="93" y="115" width="22" height="16" rx="3"/><rect x="121" y="115" width="22" height="16" rx="3"/><rect x="149" y="115" width="22" height="16" rx="3"/><rect x="177" y="115" width="22" height="16" rx="3"/><rect x="205" y="115" width="22" height="16" rx="3"/><rect x="233" y="115" width="22" height="16" rx="3"/><rect x="261" y="115" width="22" height="16" rx="3"/><rect x="289" y="115" width="22" height="16" rx="3"/><rect x="65" y="138" width="22" height="16" rx="3"/><rect x="93" y="138" width="35" height="16" rx="3"/><rect x="134" y="138" width="22" height="16" rx="3"/><rect x="162" y="138" width="22" height="16" rx="3"/><rect x="190" y="138" width="22" height="16" rx="3"/><rect x="218" y="138" width="22" height="16" rx="3"/><rect x="246" y="138" width="65" height="16" rx="3"/><rect x="90" y="161" width="220" height="16" rx="3"/></g><text x="200" y="246" text-anchor="middle" font-family="Inter,sans-serif" font-size="14" font-weight="600" fill="#15803d">MechType Pro</text></svg>
